<mxfile host="Electron" modified="2023-06-19T22:31:01.367Z" agent="Mozilla/5.0 (Windows NT 10.0; Win64; x64) AppleWebKit/537.36 (KHTML, like Gecko) draw.io/21.5.0 Chrome/112.0.5615.204 Electron/24.5.1 Safari/537.36" etag="_-oRsZXBnNfjUUrYqvC1" version="21.5.0" type="device">
  <diagram name="페이지-1" id="lJ2ygILwSOEhHLGCtKv9">
    <mxGraphModel dx="1416" dy="841" grid="1" gridSize="10" guides="1" tooltips="1" connect="1" arrows="1" fold="1" page="1" pageScale="1" pageWidth="400" pageHeight="600" math="0" shadow="0">
      <root>
        <mxCell id="0" />
        <mxCell id="1" parent="0" />
        <mxCell id="jSsn1gNInLkQKaP5ktp8-1" value="AWS EC2" style="swimlane;whiteSpace=wrap;html=1;" vertex="1" parent="1">
          <mxGeometry x="40" y="240" width="180" height="180" as="geometry" />
        </mxCell>
        <mxCell id="jSsn1gNInLkQKaP5ktp8-36" value="Docker" style="swimlane;whiteSpace=wrap;html=1;" vertex="1" parent="jSsn1gNInLkQKaP5ktp8-1">
          <mxGeometry x="20" y="40" width="140" height="120" as="geometry" />
        </mxCell>
        <mxCell id="jSsn1gNInLkQKaP5ktp8-38" value="NP-AlertManager" style="rounded=0;whiteSpace=wrap;html=1;" vertex="1" parent="jSsn1gNInLkQKaP5ktp8-36">
          <mxGeometry x="10" y="40" width="120" height="60" as="geometry" />
        </mxCell>
        <mxCell id="jSsn1gNInLkQKaP5ktp8-2" value="NP Server(Windows)" style="swimlane;whiteSpace=wrap;html=1;" vertex="1" parent="1">
          <mxGeometry x="240" y="40" width="480" height="380" as="geometry" />
        </mxCell>
        <mxCell id="jSsn1gNInLkQKaP5ktp8-6" value="Docker" style="swimlane;whiteSpace=wrap;html=1;" vertex="1" parent="jSsn1gNInLkQKaP5ktp8-2">
          <mxGeometry x="10" y="40" width="460" height="240" as="geometry" />
        </mxCell>
        <mxCell id="jSsn1gNInLkQKaP5ktp8-7" value="NP-API" style="rounded=0;whiteSpace=wrap;html=1;" vertex="1" parent="jSsn1gNInLkQKaP5ktp8-6">
          <mxGeometry x="20" y="160" width="120" height="60" as="geometry" />
        </mxCell>
        <mxCell id="jSsn1gNInLkQKaP5ktp8-8" value="NP-RedmineLoader" style="rounded=0;whiteSpace=wrap;html=1;" vertex="1" parent="jSsn1gNInLkQKaP5ktp8-6">
          <mxGeometry x="170" y="40" width="120" height="60" as="geometry" />
        </mxCell>
        <mxCell id="jSsn1gNInLkQKaP5ktp8-9" value="NP-NotionPublisher" style="rounded=0;whiteSpace=wrap;html=1;" vertex="1" parent="jSsn1gNInLkQKaP5ktp8-6">
          <mxGeometry x="170" y="160" width="120" height="60" as="geometry" />
        </mxCell>
        <mxCell id="jSsn1gNInLkQKaP5ktp8-21" value="" style="endArrow=classic;startArrow=classic;html=1;rounded=0;entryX=0;entryY=0.5;entryDx=0;entryDy=0;exitX=1;exitY=0.5;exitDx=0;exitDy=0;" edge="1" parent="jSsn1gNInLkQKaP5ktp8-6" source="jSsn1gNInLkQKaP5ktp8-7" target="jSsn1gNInLkQKaP5ktp8-8">
          <mxGeometry width="50" height="50" relative="1" as="geometry">
            <mxPoint x="-100" y="210" as="sourcePoint" />
            <mxPoint x="-50" y="160" as="targetPoint" />
          </mxGeometry>
        </mxCell>
        <mxCell id="jSsn1gNInLkQKaP5ktp8-22" value="" style="endArrow=classic;startArrow=classic;html=1;rounded=0;entryX=0;entryY=0.5;entryDx=0;entryDy=0;exitX=1;exitY=0.5;exitDx=0;exitDy=0;" edge="1" parent="jSsn1gNInLkQKaP5ktp8-6" source="jSsn1gNInLkQKaP5ktp8-7" target="jSsn1gNInLkQKaP5ktp8-9">
          <mxGeometry width="50" height="50" relative="1" as="geometry">
            <mxPoint x="-100" y="210" as="sourcePoint" />
            <mxPoint x="-50" y="160" as="targetPoint" />
          </mxGeometry>
        </mxCell>
        <mxCell id="jSsn1gNInLkQKaP5ktp8-23" value="PostgreSQL" style="shape=cylinder3;whiteSpace=wrap;html=1;boundedLbl=1;backgroundOutline=1;size=15;" vertex="1" parent="jSsn1gNInLkQKaP5ktp8-6">
          <mxGeometry x="20" y="40" width="120" height="60" as="geometry" />
        </mxCell>
        <mxCell id="jSsn1gNInLkQKaP5ktp8-24" value="" style="endArrow=classic;startArrow=classic;html=1;rounded=0;entryX=0.5;entryY=0;entryDx=0;entryDy=0;" edge="1" parent="jSsn1gNInLkQKaP5ktp8-6" source="jSsn1gNInLkQKaP5ktp8-23" target="jSsn1gNInLkQKaP5ktp8-7">
          <mxGeometry width="50" height="50" relative="1" as="geometry">
            <mxPoint x="-100" y="210" as="sourcePoint" />
            <mxPoint x="80" y="170" as="targetPoint" />
          </mxGeometry>
        </mxCell>
        <mxCell id="jSsn1gNInLkQKaP5ktp8-26" value="ELK" style="shape=cylinder3;whiteSpace=wrap;html=1;boundedLbl=1;backgroundOutline=1;size=15;" vertex="1" parent="jSsn1gNInLkQKaP5ktp8-6">
          <mxGeometry x="330" y="40" width="120" height="60" as="geometry" />
        </mxCell>
        <mxCell id="jSsn1gNInLkQKaP5ktp8-27" value="" style="endArrow=none;dashed=1;html=1;dashPattern=1 3;strokeWidth=2;rounded=0;exitX=0.5;exitY=0;exitDx=0;exitDy=0;entryX=0;entryY=0.5;entryDx=0;entryDy=0;entryPerimeter=0;" edge="1" parent="jSsn1gNInLkQKaP5ktp8-6" source="jSsn1gNInLkQKaP5ktp8-7" target="jSsn1gNInLkQKaP5ktp8-26">
          <mxGeometry width="50" height="50" relative="1" as="geometry">
            <mxPoint x="130" y="210" as="sourcePoint" />
            <mxPoint x="180" y="160" as="targetPoint" />
          </mxGeometry>
        </mxCell>
        <mxCell id="jSsn1gNInLkQKaP5ktp8-29" value="" style="endArrow=none;dashed=1;html=1;dashPattern=1 3;strokeWidth=2;rounded=0;entryX=0;entryY=0.5;entryDx=0;entryDy=0;entryPerimeter=0;exitX=1;exitY=0.5;exitDx=0;exitDy=0;" edge="1" parent="jSsn1gNInLkQKaP5ktp8-6" source="jSsn1gNInLkQKaP5ktp8-8" target="jSsn1gNInLkQKaP5ktp8-26">
          <mxGeometry width="50" height="50" relative="1" as="geometry">
            <mxPoint x="130" y="210" as="sourcePoint" />
            <mxPoint x="180" y="160" as="targetPoint" />
          </mxGeometry>
        </mxCell>
        <mxCell id="jSsn1gNInLkQKaP5ktp8-30" value="" style="endArrow=none;dashed=1;html=1;dashPattern=1 3;strokeWidth=2;rounded=0;entryX=0;entryY=0.5;entryDx=0;entryDy=0;entryPerimeter=0;exitX=1;exitY=0.5;exitDx=0;exitDy=0;" edge="1" parent="jSsn1gNInLkQKaP5ktp8-6" source="jSsn1gNInLkQKaP5ktp8-9" target="jSsn1gNInLkQKaP5ktp8-26">
          <mxGeometry width="50" height="50" relative="1" as="geometry">
            <mxPoint x="130" y="210" as="sourcePoint" />
            <mxPoint x="180" y="160" as="targetPoint" />
          </mxGeometry>
        </mxCell>
        <mxCell id="jSsn1gNInLkQKaP5ktp8-16" value="Prometeus&lt;br&gt;Server" style="rounded=0;whiteSpace=wrap;html=1;" vertex="1" parent="jSsn1gNInLkQKaP5ktp8-2">
          <mxGeometry x="10" y="300" width="120" height="60" as="geometry" />
        </mxCell>
        <mxCell id="jSsn1gNInLkQKaP5ktp8-18" style="edgeStyle=orthogonalEdgeStyle;rounded=0;orthogonalLoop=1;jettySize=auto;html=1;exitX=0;exitY=0.5;exitDx=0;exitDy=0;" edge="1" parent="jSsn1gNInLkQKaP5ktp8-2" source="jSsn1gNInLkQKaP5ktp8-17" target="jSsn1gNInLkQKaP5ktp8-16">
          <mxGeometry relative="1" as="geometry" />
        </mxCell>
        <mxCell id="jSsn1gNInLkQKaP5ktp8-17" value="WMI Exporter" style="rounded=0;whiteSpace=wrap;html=1;" vertex="1" parent="jSsn1gNInLkQKaP5ktp8-2">
          <mxGeometry x="180" y="300" width="120" height="60" as="geometry" />
        </mxCell>
        <mxCell id="jSsn1gNInLkQKaP5ktp8-3" value="Grafana Cloud" style="swimlane;whiteSpace=wrap;html=1;" vertex="1" parent="1">
          <mxGeometry x="240" y="440" width="140" height="120" as="geometry" />
        </mxCell>
        <mxCell id="jSsn1gNInLkQKaP5ktp8-11" value="Grafana" style="rounded=0;whiteSpace=wrap;html=1;" vertex="1" parent="jSsn1gNInLkQKaP5ktp8-3">
          <mxGeometry x="10" y="40" width="120" height="60" as="geometry" />
        </mxCell>
        <mxCell id="jSsn1gNInLkQKaP5ktp8-19" value="" style="endArrow=classic;startArrow=classic;html=1;rounded=0;entryX=0.5;entryY=1;entryDx=0;entryDy=0;" edge="1" parent="1" source="jSsn1gNInLkQKaP5ktp8-11" target="jSsn1gNInLkQKaP5ktp8-16">
          <mxGeometry width="50" height="50" relative="1" as="geometry">
            <mxPoint x="150" y="290" as="sourcePoint" />
            <mxPoint x="200" y="240" as="targetPoint" />
          </mxGeometry>
        </mxCell>
        <mxCell id="jSsn1gNInLkQKaP5ktp8-20" value="" style="endArrow=classic;html=1;rounded=0;exitX=1;exitY=0.5;exitDx=0;exitDy=0;entryX=0;entryY=0.5;entryDx=0;entryDy=0;" edge="1" parent="1" source="jSsn1gNInLkQKaP5ktp8-38" target="jSsn1gNInLkQKaP5ktp8-16">
          <mxGeometry width="50" height="50" relative="1" as="geometry">
            <mxPoint x="170" y="310" as="sourcePoint" />
            <mxPoint x="200" y="240" as="targetPoint" />
          </mxGeometry>
        </mxCell>
        <mxCell id="jSsn1gNInLkQKaP5ktp8-33" value="Slack" style="swimlane;whiteSpace=wrap;html=1;" vertex="1" parent="1">
          <mxGeometry x="80" y="440" width="140" height="120" as="geometry" />
        </mxCell>
        <mxCell id="jSsn1gNInLkQKaP5ktp8-34" value="SlackChannelApp" style="rounded=0;whiteSpace=wrap;html=1;" vertex="1" parent="jSsn1gNInLkQKaP5ktp8-33">
          <mxGeometry x="10" y="40" width="120" height="60" as="geometry" />
        </mxCell>
        <mxCell id="jSsn1gNInLkQKaP5ktp8-35" value="" style="endArrow=classic;html=1;rounded=0;exitX=0.5;exitY=1;exitDx=0;exitDy=0;" edge="1" parent="1" source="jSsn1gNInLkQKaP5ktp8-38" target="jSsn1gNInLkQKaP5ktp8-34">
          <mxGeometry width="50" height="50" relative="1" as="geometry">
            <mxPoint x="110" y="340" as="sourcePoint" />
            <mxPoint x="490" y="500" as="targetPoint" />
          </mxGeometry>
        </mxCell>
      </root>
    </mxGraphModel>
  </diagram>
</mxfile>
